<svg width="1143" height="1144" xmlns:ev="http://www.w3.org/2001/xml-events" xmlns="http://www.w3.org/2000/svg" viewBox="0 0 1143 1144" xmlns:xlink="http://www.w3.org/1999/xlink"><style type="text/css"><![CDATA[
.st1 {fill:#ffffff;font-family:Arial;font-size:16pt}
]]></style><defs/><g id="page1" transform="translate(5,5)"><rect width="1134" height="1134" stroke="#808080" y="0" fill="#ffffff" x="0"/><path stroke-width="3.33333" stroke="#b5b5b5" id="shape1" transform="translate(326,168.6)" d="M454,757.4L454,0L0,0L0,757.4L454,757.4z" fill="#d8d8d8" fill-opacity="0.33"/><g id="shape2" transform="matrix(0,1,-1,0,553,132)"><path stroke-width="6.66667" stroke="#000000" d="M20.7,-0L45.3,-0" fill="none"/><path stroke-width="1" stroke="#000000" stroke-linecap="round" d="M0,-0L17.9,10.3C19.6,7.3,20.7,3.8,20.7,-0C20.7,-3.8,19.6,-7.3,17.9,-10.3L0,-0" fill="#000000"/><path stroke-width="1" stroke="#000000" stroke-linecap="round" d="M66,-0L48.1,-10.3C46.4,-7.3,45.3,-3.8,45.3,-0C45.3,3.8,46.4,7.3,48.1,10.3L66,-0" fill="#000000"/></g><g id="shape3" transform="translate(647,737.5)"><path d="M0,13.6L0,71.4C0,78.9,19,85,42.5,85C66,85,85,78.9,85,71.4L85,13.6C85,6.1,66,0,42.5,0C19,0,0,6.1,0,13.6z" fill="#d7d7d7"/><path stroke-width="3.33333" stroke="#afafaf" d="M0,13.6L0,71.4C0,78.9,19,85,42.5,85C66,85,85,78.9,85,71.4L85,13.6C85,6.1,66,0,42.5,0C19,0,0,6.1,0,13.6zM0,13.6C0,21.1,19,27.2,42.5,27.2C66,27.2,85,21.1,85,13.6" fill="none"/><text class="st1"><tspan y="50.2" x="6">Postgre</tspan><tspan y="75.2" x="22">SQL</tspan></text></g><path id="shape4" transform="translate(503.95,69.97)" d="M98.1,44.4C98.1,35.4,91.3,27.9,82.6,26.9C82.6,26.6,82.7,26.4,82.7,26.1C82.7,11.7,71.1,0,56.8,0C46.4,0,37.5,6.1,33.3,15C31.2,13.5,28.7,12.7,25.9,12.7C18.9,12.7,13.2,18.1,12.7,25.1C5.3,27.7,0,34.7,0,43C0,53.3,8.1,61.6,18.2,62L81.3,62C90.6,61.6,98.1,53.9,98.1,44.4" fill="#3498db"/><g id="shape5" transform="translate(498,198)"><path d="M95,56C103.3,56,110,49.3,110,41L110,15C110,6.7,103.3,-0,95,0L15,0C6.7,0,0,6.7,-0,15L0,41C0,49.3,6.7,56,15,56L95,56z" fill="#ffc000"/><text class="st1"><tspan y="34.5" x="28">Nginx</tspan></text></g><g id="shape6" transform="matrix(0,1,-1,0,553,254)"><path stroke-width="6.66667" stroke="#000000" d="M20.7,-0L45.3,-0" fill="none"/><path stroke-width="1" stroke="#000000" stroke-linecap="round" d="M0,-0L17.9,10.3C19.6,7.3,20.7,3.8,20.7,-0C20.7,-3.8,19.6,-7.3,17.9,-10.3L0,-0" fill="#000000"/><path stroke-width="1" stroke="#000000" stroke-linecap="round" d="M66,-0L48.1,-10.3C46.4,-7.3,45.3,-3.8,45.3,-0C45.3,3.8,46.4,7.3,48.1,10.3L66,-0" fill="#000000"/></g><g id="shape7" transform="translate(515,320)"><path stroke="#3498db" d="M0,38C-0,17,17,0,38,0C59,-0,76,17,76,38C76,59,59,76,38,76C17,76,0,59,0,38z" fill="#3498db"/><text class="st1"><tspan y="44.5" x="9">bridge</tspan></text></g><g id="shape8" transform="matrix(0,1,-1,0,553,396)"><path stroke-width="6.66667" stroke="#000000" d="M20.7,-0L45.3,-0" fill="none"/><path stroke-width="1" stroke="#000000" stroke-linecap="round" d="M0,-0L17.9,10.3C19.6,7.3,20.7,3.8,20.7,-0C20.7,-3.8,19.6,-7.3,17.9,-10.3L0,-0" fill="#000000"/><path stroke-width="1" stroke="#000000" stroke-linecap="round" d="M66,-0L48.1,-10.3C46.4,-7.3,45.3,-3.8,45.3,-0C45.3,3.8,46.4,7.3,48.1,10.3L66,-0" fill="#000000"/></g><g id="shape9" transform="translate(498,462)"><path d="M95,78C103.3,78,110,71.3,110,63L110,15C110,6.7,103.3,-0,95,0L15,0C6.7,0,0,6.7,-0,15L0,63C0,71.3,6.7,78,15,78L95,78z" fill="#1bbc9d"/><text class="st1"><tspan y="33" x="17">uWsgi + </tspan><tspan y="58" x="22">Django</tspan></text></g><g id="shape10" transform="matrix(0.91,0.42,-0.42,0.91,553,540)"><path stroke-width="6.66667" stroke="#000000" d="M20.7,-0L124.7,-0" fill="none"/><path stroke-width="1" stroke="#000000" stroke-linecap="round" d="M0,-0L17.9,10.3C19.6,7.3,20.7,3.8,20.7,-0C20.7,-3.8,19.6,-7.3,17.9,-10.3L0,-0" fill="#000000"/><path stroke-width="1" stroke="#000000" stroke-linecap="round" d="M145.3,-0L127.4,-10.3C125.7,-7.3,124.7,-3.8,124.7,-0C124.7,3.8,125.7,7.3,127.4,10.3L145.3,-0" fill="#000000"/></g><g id="shape11" transform="translate(647,600.75)"><path stroke="#3498db" d="M0,38C-0,17,17,0,38,0C59,-0,76,17,76,38C76,59,59,76,38,76C17,76,0,59,0,38z" fill="#3498db"/><text class="st1"><tspan y="44.5" x="9">bridge</tspan></text></g><g id="shape12" transform="matrix(0,1,-1,0,685,676.8)"><path stroke-width="6.66667" stroke="#000000" d="M20.7,-0L45.3,-0" fill="none"/><path stroke-width="1" stroke="#000000" stroke-linecap="round" d="M0,-0L17.9,10.3C19.6,7.3,20.7,3.8,20.7,-0C20.7,-3.8,19.6,-7.3,17.9,-10.3L0,-0" fill="#000000"/><path stroke-width="1" stroke="#000000" stroke-linecap="round" d="M66,-0L48.1,-10.3C46.4,-7.3,45.3,-3.8,45.3,-0C45.3,3.8,46.4,7.3,48.1,10.3L66,-0" fill="#000000"/></g></g></svg>