<svg width="1133" height="1597" xmlns:ev="http://www.w3.org/2001/xml-events" xmlns="http://www.w3.org/2000/svg" viewBox="0 0 1133 1597" xmlns:xlink="http://www.w3.org/1999/xlink"><style type="text/css"><![CDATA[
.st6 {fill:#000000;font-family:Arial;font-size:10pt}
.st2 {fill:#191919;font-family:Arial;font-size:10pt}
.st4 {fill:#1f6391;font-family:Arial;font-size:10pt;font-weight:bold}
.st5 {fill:#1f6391;font-family:Arial;font-size:10pt}
.st3 {fill:#ffffff;font-family:Arial;font-size:10pt}
.st1 {fill:#ffffff;font-family:Arial;font-size:16pt;font-weight:bold}
]]></style><defs/><g id="page1" transform="translate(5,5)"><rect width="1123" height="1587" stroke="#808080" y="0" fill="#ffffff" x="0"/><path stroke-width="3.33333" stroke="#b5b5b5" id="shape1" transform="translate(336,85)" d="M458,1086L458,0L0,0L0,1086L458,1086z" fill="#d8d8d8" stroke-opacity="0" fill-opacity="0.33"/><g transform="translate(482,171)"><g id="shape2" transform="translate(-146,-86)"><path d="M458,56.6L458,0L0,0L0,56.6L458,56.6z" fill="#c7c7c7"/><text class="st1"><tspan y="34.8" x="143">Fitness Club App</tspan></text></g></g><g id="shape3" transform="translate(354.5,160.3)"><path d="M420.5,56.6L420.5,0L0,0L0,56.6L420.5,56.6z" fill="#c2c2c2" fill-opacity="0.54"/><text class="st1"><tspan y="25.4" x="141.3">Blog modules</tspan></text></g><path stroke-width="3.33333" stroke="#b5b5b5" id="shape4" transform="translate(354.5,198)" d="M421,123L421,0L0,0L0,123L421,123z" fill="#d8d8d8" stroke-opacity="0"/><g id="shape5" transform="translate(148.48,495.3)"><path d="M11.4,7.6C11.4,3.4,14.8,-0,19,-0C23.2,-0,26.6,3.4,26.6,7.6C26.6,11.8,23.2,15.2,19,15.2C14.8,15.2,11.4,11.8,11.4,7.6z" fill="#3498db"/><path stroke="#3498db" d="M11.4,7.6C11.4,3.4,14.8,-0,19,-0C23.2,-0,26.6,3.4,26.6,7.6C26.6,11.8,23.2,15.2,19,15.2C14.8,15.2,11.4,11.8,11.4,7.6zM19,49.4L19,15.2M31.5,76L19,49.4L6.5,76M38,31.9L0,31.9" fill="none"/><text class="st2"><tspan y="91.5" x="2.4">Client</tspan></text></g><g id="shape6" transform="translate(973,302)"><path d="M11.4,7.6C11.4,3.4,14.8,-0,19,-0C23.2,-0,26.6,3.4,26.6,7.6C26.6,11.8,23.2,15.2,19,15.2C14.8,15.2,11.4,11.8,11.4,7.6z" fill="#3498db"/><path stroke="#3498db" d="M11.4,7.6C11.4,3.4,14.8,-0,19,-0C23.2,-0,26.6,3.4,26.6,7.6C26.6,11.8,23.2,15.2,19,15.2C14.8,15.2,11.4,11.8,11.4,7.6zM19,49.4L19,15.2M31.5,76L19,49.4L6.5,76M38,31.9L0,31.9" fill="none"/><text class="st2"><tspan y="91.5" x="-9.9">Employee</tspan></text></g><g id="shape7" transform="translate(405.5,233.55)"><path stroke="#3498db" d="M0,29C-0,13,24.6,0,55,0C85.4,-0,110,13,110,29C110,45,85.4,58,55,58C24.6,58,0,45,0,29z" fill="#3498db"/><text class="st3"><tspan y="25" x="25">Read Blog </tspan><tspan y="40" x="39">Posts</tspan></text></g><g id="shape8" transform="translate(397.48,449.3)"><path stroke="#3498db" d="M0,28C-0,12.5,24.6,0,55,0C85.4,-0,110,12.5,110,28C110,43.5,85.4,56,55,56C24.6,56,0,43.5,0,28z" fill="#3498db"/><text class="st3"><tspan y="31.5" x="19">View Gallery</tspan></text></g><g id="shape9" transform="translate(397.48,543.8)"><path stroke="#3498db" d="M0,36.5C-0,16.3,24.6,0,55,0C85.4,-0,110,16.3,110,36.5C110,56.7,85.4,73,55,73C24.6,73,0,56.7,0,36.5z" fill="#3498db"/><text class="st3"><tspan y="25" x="20">View Sports </tspan><tspan y="40" x="29">Activities </tspan><tspan y="55" x="28">Schedule</tspan></text></g><g id="shape10" transform="translate(397.48,655.3)"><path stroke="#3498db" d="M0,36.5C-0,16.3,24.6,0,55,0C85.4,-0,110,16.3,110,36.5C110,56.7,85.4,73,55,73C24.6,73,0,56.7,0,36.5z" fill="#3498db"/><text class="st3"><tspan y="25" x="20">View Sports </tspan><tspan y="40" x="29">Activities </tspan><tspan y="55" x="19">Descriptions</tspan></text></g><g id="shape11" transform="translate(384.48,757.8)"><path stroke="#3498db" d="M0,29C-0,13,24.6,0,55,0C85.4,-0,110,13,110,29C110,45,85.4,58,55,58C24.6,58,0,45,0,29z" fill="#3498db"/><text class="st3"><tspan y="25" x="16">View Trainers </tspan><tspan y="40" x="19">Descriptions</tspan></text></g><g id="shape12" transform="translate(365.48,1013.3)"><path stroke="#3498db" d="M0,36.5C-0,16.3,24.6,0,55,0C85.4,-0,110,16.3,110,36.5C110,56.7,85.4,73,55,73C24.6,73,0,56.7,0,36.5z" fill="#3498db"/><text class="st3"><tspan y="25" x="44">Buy </tspan><tspan y="40" x="19">Subscription </tspan><tspan y="55" x="41">Card</tspan></text></g><g id="shape13" transform="translate(475.48,1049.8)"><path stroke="#000000" d="M0,0L120,-76.5" stroke-dasharray="6,4" fill="none"/><path stroke-width="1" stroke-linejoin="round" stroke="#000000" stroke-linecap="round" d="M106.7,-75.1L120,-76.5L113.1,-65" fill="none"/><text class="st4"><tspan y="39.9" x="-19.1">&lt;&lt;Include>></tspan></text></g><g id="shape14" transform="translate(540.48,917.3)"><path stroke="#3498db" d="M0,28C-0,12.5,24.6,0,55,0C85.4,-0,110,12.5,110,28C110,43.5,85.4,56,55,56C24.6,56,0,43.5,0,28z" fill="#3498db"/><text class="st3"><tspan y="31.5" x="37">Log In</tspan></text></g><g id="shape15" transform="translate(346.48,831.3)"><path stroke="#3498db" d="M0,29C-0,13,24.6,0,55,0C85.4,-0,110,13,110,29C110,45,85.4,58,55,58C24.6,58,0,45,0,29z" fill="#3498db"/><text class="st3"><tspan y="25" x="9">Manage Client's </tspan><tspan y="40" x="37">Profile</tspan></text></g><g id="shape16" transform="translate(456.48,860.3)"><path stroke="#000000" d="M0,0L139,57" stroke-dasharray="6,4" fill="none"/><path stroke-width="1" stroke-linejoin="round" stroke="#000000" stroke-linecap="round" d="M130.2,46.9L139,57L125.6,58" fill="none"/><text class="st5"><tspan y="-0.3" x="33.4">&lt;&lt;Include>></tspan></text></g><g id="shape17" transform="translate(186.48,533.3)"><path stroke="#000000" d="M0,0L219,-270.7" fill="none"/><text class="st6"><tspan y="-23.4" x="76.3">Association</tspan></text></g><g id="shape18" transform="translate(365.48,1161.3)"><path stroke="#3498db" d="M0,29C-0,13,24.6,0,55,0C85.4,-0,110,13,110,29C110,45,85.4,58,55,58C24.6,58,0,45,0,29z" fill="#3498db"/><text class="st3"><tspan y="25" x="18">Pay By Bank </tspan><tspan y="40" x="31">Transfer</tspan></text></g><g id="shape19" transform="translate(483.48,1161.3)"><path stroke="#3498db" d="M0,28C-0,12.5,24.6,0,55,0C85.4,-0,110,12.5,110,28C110,43.5,85.4,56,55,56C24.6,56,0,43.5,0,28z" fill="#3498db"/><text class="st3"><tspan y="31.5" x="12">Pay By PayPal</tspan></text></g><path stroke="#000000" id="shape20" transform="translate(420.48,1086.3)" d="M0,0L0,41L118,41L118,75" fill="none"/><g id="shape21" transform="translate(420.48,1161.3)"><path stroke="#000000" d="M0,0L0,-67" fill="none"/><path stroke-width="1" stroke-linejoin="round" stroke="#000000" stroke-linecap="round" d="M0,-75L-4,-67L4,-67L0,-75" fill="none"/></g></g></svg>