<svg height="512pt" viewBox="-37 0 512 512" width="512pt" xmlns="http://www.w3.org/2000/svg"><path d="m393.144531 438.855469c0 15.148437-12.28125 27.429687-27.429687 27.429687-15.148438 0-27.429688-12.28125-27.429688-27.429687 0-15.148438 12.28125-27.425781 27.429688-27.425781 15.148437 0 27.429687 12.277343 27.429687 27.425781zm0 0"/><path d="m393.144531 237.714844c0 15.148437-12.28125 27.429687-27.429687 27.429687-15.148438 0-27.429688-12.28125-27.429688-27.429687 0-15.148438 12.28125-27.429688 27.429688-27.429688 15.148437 0 27.429687 12.28125 27.429687 27.429688zm0 0"/><path d="m100.570312 438.855469c0 15.148437-12.277343 27.429687-27.425781 27.429687-15.148437 0-27.429687-12.28125-27.429687-27.429687 0-15.148438 12.28125-27.425781 27.429687-27.425781 15.148438 0 27.425781 12.277343 27.425781 27.425781zm0 0"/><path d="m9.144531 512h420.570313c5.050781 0 9.140625-4.09375 9.140625-9.144531v-493.710938c0-5.050781-4.089844-9.144531-9.140625-9.144531h-279.644532l-18.285156 18.285156h206.5c15.148438 0 27.429688 12.28125 27.429688 27.429688v100.570312c0 15.148438-12.28125 27.429688-27.429688 27.429688h-237.714844c-15.148437 0-27.425781-12.28125-27.425781-27.429688v-69.355468l-20.964843 20.960937c-3.589844 3.46875-9.292969 3.417969-12.816407-.109375-3.527343-3.527344-3.578125-9.230469-.113281-12.816406l33.894531-33.894532v-5.355468c0-15.148438 12.277344-27.429688 27.425781-27.429688h5.359376l18.285156-18.285156h-38.144532l-43.035156 43.035156c-3.585937 3.464844-9.289062 3.414063-12.816406-.109375-3.527344-3.527343-3.578125-9.230469-.109375-12.816406l30.105469-30.109375h-51.070313c-5.050781 0-9.144531 4.09375-9.144531 9.144531v493.710938c0 5.050781 4.09375 9.144531 9.144531 9.144531zm310.855469-274.285156c.003906-24.054688 18.652344-43.992188 42.65625-45.601563 24-1.613281 45.144531 15.65625 48.363281 39.496094 3.214844 23.839844-12.59375 46.09375-36.164062 50.90625v111.542969c22.996093 4.691406 38.699219 26.035156 36.339843 49.382812-2.355468 23.351563-22.011718 41.121094-45.480468 41.121094s-43.125-17.769531-45.484375-41.121094c-2.359375-23.347656 13.347656-44.691406 36.339843-49.382812v-111.542969c-21.269531-4.375-36.542968-23.085937-36.570312-44.800781zm-152.75 66.679687 50.285156-50.285156c3.589844-3.46875 9.289063-3.417969 12.816406.109375 3.527344 3.527344 3.578126 9.230469.113282 12.816406l-50.285156 50.285156c-3.589844 3.464844-9.292969 3.417969-12.816407-.109374-3.527343-3.527344-3.578125-9.230469-.113281-12.816407zm0 64 109.714844-109.714843c3.585937-3.464844 9.289062-3.417969 12.816406.109374 3.527344 3.527344 3.578125 9.230469.109375 12.816407l-109.710937 109.714843c-3.589844 3.464844-9.292969 3.417969-12.816407-.109374-3.527343-3.527344-3.578125-9.230469-.113281-12.816407zm-139.820312-130.679687c.003906-24.054688 18.652343-43.992188 42.652343-45.601563 24.003907-1.613281 45.144531 15.65625 48.363281 39.496094s-12.589843 46.09375-36.160156 50.90625v111.542969c22.996094 4.691406 38.699219 26.035156 36.339844 49.382812-2.359375 23.351563-22.015625 41.121094-45.480469 41.121094-23.46875 0-43.125-17.769531-45.484375-41.121094-2.359375-23.347656 13.347656-44.691406 36.339844-49.382812v-111.542969c-21.269531-4.375-36.542969-23.085937-36.570312-44.800781zm0 0"/><path d="m100.570312 237.714844c0 15.148437-12.277343 27.429687-27.425781 27.429687-15.148437 0-27.429687-12.28125-27.429687-27.429687 0-15.148438 12.28125-27.429688 27.429687-27.429688 15.148438 0 27.425781 12.28125 27.425781 27.429688zm0 0"/><path d="m91.429688 45.714844v100.570312c0 5.050782 4.09375 9.144532 9.140624 9.144532h237.714844c5.050782 0 9.144532-4.09375 9.144532-9.144532v-100.570312c0-5.050782-4.09375-9.144532-9.144532-9.144532h-237.714844c-5.046874 0-9.140624 4.09375-9.140624 9.144532zm128 100.570312h-9.144532c-5.050781 0-9.140625-4.09375-9.140625-9.140625 0-5.050781 4.089844-9.144531 9.140625-9.144531h9.144532c5.046874 0 9.140624 4.09375 9.140624 9.144531 0 5.046875-4.09375 9.140625-9.140624 9.140625zm27.425781-27.429687c0 5.050781-4.089844 9.144531-9.140625 9.144531-5.050782 0-9.144532-4.09375-9.144532-9.144531v-9.140625c0-5.050782 4.09375-9.144532 9.144532-9.144532 5.050781 0 9.140625 4.09375 9.140625 9.144532zm54.859375 27.429687h-9.144532c-5.046874 0-9.140624-4.09375-9.140624-9.140625 0-5.050781 4.09375-9.144531 9.140624-9.144531h9.144532c5.050781 0 9.140625 4.09375 9.140625 9.144531 0 5.046875-4.089844 9.140625-9.140625 9.140625zm27.429687-27.429687c0 5.050781-4.09375 9.144531-9.144531 9.144531s-9.144531-4.09375-9.144531-9.144531v-9.140625c0-5.050782 4.09375-9.144532 9.144531-9.144532s9.144531 4.09375 9.144531 9.144532zm-9.144531-54.855469c5.050781 0 9.144531 4.09375 9.144531 9.144531v9.140625c0 5.050782-4.09375 9.144532-9.144531 9.144532s-9.144531-4.09375-9.144531-9.144532v-9.140625c0-5.050781 4.09375-9.144531 9.144531-9.144531zm-27.429688-18.285156h9.144532c5.050781 0 9.140625 4.09375 9.140625 9.140625 0 5.050781-4.089844 9.144531-9.140625 9.144531h-9.144532c-5.046874 0-9.140624-4.09375-9.140624-9.144531 0-5.046875 4.09375-9.140625 9.140624-9.140625zm-27.425781 27.429687c0-5.050781 4.089844-9.144531 9.140625-9.144531 5.050782 0 9.144532 4.09375 9.144532 9.144531v9.140625c0 5.050782-4.09375 9.144532-9.144532 9.144532-5.050781 0-9.140625-4.09375-9.140625-9.144532zm0 36.570313c0-5.050782 4.089844-9.144532 9.140625-9.144532 5.050782 0 9.144532 4.09375 9.144532 9.144532v9.140625c0 5.050781-4.09375 9.144531-9.144532 9.144531-5.050781 0-9.140625-4.09375-9.140625-9.144531zm-27.429687-45.714844c5.050781 0 9.140625 4.09375 9.140625 9.144531v9.140625c0 5.050782-4.089844 9.144532-9.140625 9.144532-5.050782 0-9.144532-4.09375-9.144532-9.144532v-9.140625c0-5.050781 4.09375-9.144531 9.144532-9.144531zm-27.429688-18.285156h9.144532c5.046874 0 9.140624 4.09375 9.140624 9.140625 0 5.050781-4.09375 9.144531-9.140624 9.144531h-9.144532c-5.050781 0-9.140625-4.09375-9.140625-9.144531 0-5.046875 4.089844-9.140625 9.140625-9.140625zm-27.429687 27.429687c0-5.050781 4.09375-9.144531 9.144531-9.144531s9.144531 4.09375 9.144531 9.144531v9.140625c0 5.050782-4.09375 9.144532-9.144531 9.144532s-9.144531-4.09375-9.144531-9.144532zm0 36.570313c0-5.050782 4.09375-9.144532 9.144531-9.144532s9.144531 4.09375 9.144531 9.144532v9.140625c0 5.050781-4.09375 9.144531-9.144531 9.144531s-9.144531-4.09375-9.144531-9.144531zm0 0"/></svg>